<?xml version="1.0" standalone="no"?>
<!DOCTYPE svg PUBLIC "-//W3C//DTD SVG 20010904//EN"
 "http://www.w3.org/TR/2001/REC-SVG-20010904/DTD/svg10.dtd">
<svg version="1.0" xmlns="http://www.w3.org/2000/svg"
 width="947.000000pt" height="947.000000pt" viewBox="0 0 947.000000 947.000000"
 preserveAspectRatio="xMidYMid meet">
<metadata>
Created by potrace 1.11, written by Peter Selinger 2001-2013
</metadata>
<g transform="translate(0.000000,947.000000) scale(0.100000,-0.100000)"
fill="#000000" stroke="none">
<path d="M800 9455 c-368 -74 -674 -362 -772 -725 l-23 -85 0 -3910 0 -3910
23 -85 c91 -339 373 -621 712 -712 l85 -23 3910 0 3910 0 85 23 c339 91 621
373 712 712 l23 85 0 3910 0 3910 -23 85 c-52 196 -183 396 -342 523 -96 77
-247 155 -365 189 l-80 23 -3895 2 c-3173 1 -3907 -1 -3960 -12z m3925 -881
c410 -41 564 -60 575 -70 13 -13 12 -20 -10 -62 -29 -54 -96 -101 -159 -109
-31 -4 -42 -11 -46 -27 -3 -11 -18 -82 -34 -156 -16 -74 -32 -147 -36 -162
l-7 -28 1525 0 c1277 0 1526 -2 1536 -14 8 -9 10 -121 9 -392 l-3 -379 -1651
-3 -1652 -2 -40 -118 c-22 -64 -44 -125 -47 -134 -7 -17 67 -18 1468 -18 1235
0 1476 -2 1486 -14 8 -9 11 -114 9 -367 l-3 -354 -748 -3 c-412 -1 -747 -6
-745 -10 2 -5 43 -70 93 -145 l90 -137 1065 0 c816 0 1069 -3 1078 -12 18 -18
17 -771 -1 -787 -10 -8 -217 -12 -712 -13 l-698 -3 109 -94 c422 -362 903
-657 1394 -856 58 -24 108 -49 113 -56 6 -10 -32 -54 -130 -154 -164 -165
-321 -359 -442 -542 -47 -72 -91 -132 -98 -132 -21 -1 -314 153 -471 247 -83
51 -154 92 -157 92 -3 0 -6 -161 -7 -357 l-3 -358 -680 -5 -680 -5 125 -71
c548 -312 1294 -605 1913 -749 142 -34 145 -40 53 -126 -130 -121 -342 -378
-478 -579 -39 -58 -74 -108 -78 -113 -8 -9 -279 83 -483 164 -613 245 -1223
589 -1710 965 -56 43 -105 81 -109 82 -5 2 -8 -282 -8 -630 0 -480 -3 -637
-12 -646 -17 -17 -979 -17 -996 0 -9 9 -12 162 -12 625 0 337 -2 613 -4 613
-2 0 -61 -43 -132 -96 -350 -261 -793 -524 -1222 -724 -277 -129 -643 -274
-869 -343 l-82 -25 -25 41 c-76 131 -334 452 -498 623 -54 56 -98 108 -98 117
0 10 22 20 73 32 384 93 842 245 1227 408 191 81 564 267 718 359 l123 73
-652 3 c-461 1 -656 5 -666 13 -10 9 -13 80 -13 360 0 192 -2 349 -5 349 -3 0
-58 -35 -123 -78 -117 -79 -357 -225 -485 -296 -51 -29 -71 -35 -81 -27 -7 6
-32 43 -55 81 -106 179 -263 372 -442 544 -71 68 -129 129 -129 134 0 6 53 38
118 73 497 265 936 575 1336 945 l130 119 -680 5 c-373 3 -680 6 -682 8 -1 1
-1 181 0 400 l3 397 1022 5 1021 5 20 25 c24 32 162 247 162 255 0 2 -287 6
-637 7 l-638 3 -3 356 c-2 290 0 358 11 368 10 8 245 12 838 13 l823 3 52 130
51 130 -1126 5 -1126 5 -3 379 c-1 271 1 383 9 392 10 12 216 14 1255 14 684
0 1244 3 1244 8 0 4 18 93 39 197 22 105 49 249 61 320 27 164 24 156 57 150
15 -3 280 -30 588 -61z"/>
<path d="M4281 6032 c-39 -71 -73 -136 -77 -145 -6 -16 31 -17 535 -17 l540 0
-72 145 -72 145 -392 0 -392 0 -70 -128z"/>
<path d="M3601 4988 c-30 -39 -99 -125 -155 -192 -56 -67 -108 -130 -116 -140
-15 -19 -12 -19 115 -12 725 38 1595 132 2118 228 l167 30 187 -178 c102 -99
255 -244 339 -324 105 -101 152 -152 153 -168 2 -35 -50 -52 -156 -52 -50 0
-183 -15 -308 -34 -121 -19 -323 -46 -450 -61 -126 -15 -236 -29 -242 -31 -10
-3 -13 -54 -13 -214 l0 -210 1018 1 c960 0 1016 1 992 17 -367 252 -734 571
-1029 895 -125 138 -300 347 -379 455 l-46 62 -1070 -1 -1071 0 -54 -71z"/>
<path d="M2885 4203 c-127 -121 -368 -323 -554 -464 l-144 -109 1017 0 1016 0
0 170 c0 129 -3 170 -12 170 -7 0 -85 -4 -173 -10 -194 -11 -608 -28 -804 -32
l-144 -3 -17 87 c-16 76 -77 289 -83 288 -1 -1 -47 -44 -102 -97z"/>
</g>
</svg>
